<mxfile host="app.diagrams.net" agent="Mozilla/5.0 (Windows NT 10.0; Win64; x64) AppleWebKit/537.36 (KHTML, like Gecko) Chrome/139.0.0.0 Safari/537.36 Edg/139.0.0.0" version="28.1.1">
  <diagram name="Page-1" id="L7H9DltlJWxqrmrGK6Mb">
    <mxGraphModel dx="1379" dy="888" grid="1" gridSize="10" guides="1" tooltips="1" connect="1" arrows="1" fold="1" page="1" pageScale="1" pageWidth="850" pageHeight="1100" math="0" shadow="0">
      <root>
        <mxCell id="0" />
        <mxCell id="1" parent="0" />
        <mxCell id="YUL_Qh2rPIl2TigICL6B-1" value="Build and Secrets" style="whiteSpace=wrap;strokeWidth=2;" vertex="1" parent="1">
          <mxGeometry x="763" y="1106" width="855" height="308" as="geometry" />
        </mxCell>
        <mxCell id="YUL_Qh2rPIl2TigICL6B-2" value="Ops / Alerts" style="whiteSpace=wrap;strokeWidth=2;" vertex="1" parent="1">
          <mxGeometry x="2937" y="960" width="310" height="276" as="geometry" />
        </mxCell>
        <mxCell id="YUL_Qh2rPIl2TigICL6B-3" value="Email Provider" style="whiteSpace=wrap;strokeWidth=2;" vertex="1" parent="1">
          <mxGeometry x="3800" y="20" width="591" height="124" as="geometry" />
        </mxCell>
        <mxCell id="YUL_Qh2rPIl2TigICL6B-4" value="PostHog Cloud" style="whiteSpace=wrap;strokeWidth=2;" vertex="1" parent="1">
          <mxGeometry x="2201" y="972" width="486" height="124" as="geometry" />
        </mxCell>
        <mxCell id="YUL_Qh2rPIl2TigICL6B-5" value="Supabase Project (region)" style="whiteSpace=wrap;strokeWidth=2;" vertex="1" parent="1">
          <mxGeometry x="3297" y="164" width="863" height="1310" as="geometry" />
        </mxCell>
        <mxCell id="YUL_Qh2rPIl2TigICL6B-6" value="Supabase Storage" style="whiteSpace=wrap;strokeWidth=2;" vertex="1" parent="1">
          <mxGeometry x="3825" y="325" width="310" height="124" as="geometry" />
        </mxCell>
        <mxCell id="YUL_Qh2rPIl2TigICL6B-7" value="Postgres" style="whiteSpace=wrap;strokeWidth=2;" vertex="1" parent="1">
          <mxGeometry x="3825" y="627" width="310" height="827" as="geometry" />
        </mxCell>
        <mxCell id="YUL_Qh2rPIl2TigICL6B-8" value="Supabase Edge Functions" style="whiteSpace=wrap;strokeWidth=2;" vertex="1" parent="1">
          <mxGeometry x="3322" y="263" width="310" height="1170" as="geometry" />
        </mxCell>
        <mxCell id="YUL_Qh2rPIl2TigICL6B-9" value="Frontend Hosting" style="whiteSpace=wrap;strokeWidth=2;" vertex="1" parent="1">
          <mxGeometry x="1667" y="203" width="310" height="1100" as="geometry" />
        </mxCell>
        <mxCell id="YUL_Qh2rPIl2TigICL6B-10" value="Edge / CDN" style="whiteSpace=wrap;strokeWidth=2;" vertex="1" parent="1">
          <mxGeometry x="763" y="773" width="855" height="172" as="geometry" />
        </mxCell>
        <mxCell id="YUL_Qh2rPIl2TigICL6B-11" value="Public DNS" style="whiteSpace=wrap;strokeWidth=2;" vertex="1" parent="1">
          <mxGeometry x="403" y="785" width="310" height="148" as="geometry" />
        </mxCell>
        <mxCell id="YUL_Qh2rPIl2TigICL6B-12" value="User Device" style="whiteSpace=wrap;strokeWidth=2;" vertex="1" parent="1">
          <mxGeometry x="20" y="797" width="219" height="124" as="geometry" />
        </mxCell>
        <mxCell id="YUL_Qh2rPIl2TigICL6B-13" value="Mobile Browser" style="whiteSpace=wrap;strokeWidth=2;" vertex="1" parent="1">
          <mxGeometry x="45" y="832" width="169" height="54" as="geometry" />
        </mxCell>
        <mxCell id="YUL_Qh2rPIl2TigICL6B-14" value="A/AAAA + CNAME&#xa;(app.lumlyn.com)" style="whiteSpace=wrap;strokeWidth=2;" vertex="1" parent="1">
          <mxGeometry x="428" y="820" width="260" height="78" as="geometry" />
        </mxCell>
        <mxCell id="YUL_Qh2rPIl2TigICL6B-15" value="Vercel Edge Network&#xa;Static assets + ISR" style="whiteSpace=wrap;strokeWidth=2;" vertex="1" parent="1">
          <mxGeometry x="1060" y="808" width="260" height="102" as="geometry" />
        </mxCell>
        <mxCell id="YUL_Qh2rPIl2TigICL6B-16" value="Next.js static build&#xa;/ index.html / assets" style="whiteSpace=wrap;strokeWidth=2;" vertex="1" parent="1">
          <mxGeometry x="1692" y="910" width="260" height="78" as="geometry" />
        </mxCell>
        <mxCell id="YUL_Qh2rPIl2TigICL6B-17" value="GET /quiz" style="whiteSpace=wrap;strokeWidth=2;" vertex="1" parent="1">
          <mxGeometry x="3411" y="1293" width="131" height="54" as="geometry" />
        </mxCell>
        <mxCell id="YUL_Qh2rPIl2TigICL6B-18" value="POST /quiz" style="whiteSpace=wrap;strokeWidth=2;" vertex="1" parent="1">
          <mxGeometry x="3407" y="883" width="139" height="54" as="geometry" />
        </mxCell>
        <mxCell id="YUL_Qh2rPIl2TigICL6B-19" value="POST /lead" style="whiteSpace=wrap;strokeWidth=2;" vertex="1" parent="1">
          <mxGeometry x="3406" y="602" width="140" height="54" as="geometry" />
        </mxCell>
        <mxCell id="YUL_Qh2rPIl2TigICL6B-20" value="/health" style="whiteSpace=wrap;strokeWidth=2;" vertex="1" parent="1">
          <mxGeometry x="3420" y="1135" width="114" height="54" as="geometry" />
        </mxCell>
        <mxCell id="YUL_Qh2rPIl2TigICL6B-21" value="Scheduled Job&#xa;nightly export" style="whiteSpace=wrap;strokeWidth=2;" vertex="1" parent="1">
          <mxGeometry x="3347" y="298" width="260" height="78" as="geometry" />
        </mxCell>
        <mxCell id="YUL_Qh2rPIl2TigICL6B-22" value="USERS" style="whiteSpace=wrap;strokeWidth=2;" vertex="1" parent="1">
          <mxGeometry x="3928" y="662" width="104" height="54" as="geometry" />
        </mxCell>
        <mxCell id="YUL_Qh2rPIl2TigICL6B-23" value="QUIZ_SESSIONS" style="whiteSpace=wrap;strokeWidth=2;" vertex="1" parent="1">
          <mxGeometry x="3896" y="766" width="168" height="54" as="geometry" />
        </mxCell>
        <mxCell id="YUL_Qh2rPIl2TigICL6B-24" value="QUIZ_ANSWERS" style="whiteSpace=wrap;strokeWidth=2;" vertex="1" parent="1">
          <mxGeometry x="3895" y="870" width="169" height="54" as="geometry" />
        </mxCell>
        <mxCell id="YUL_Qh2rPIl2TigICL6B-25" value="LEADS" style="whiteSpace=wrap;strokeWidth=2;" vertex="1" parent="1">
          <mxGeometry x="3928" y="974" width="104" height="54" as="geometry" />
        </mxCell>
        <mxCell id="YUL_Qh2rPIl2TigICL6B-26" value="QUESTIONS" style="whiteSpace=wrap;strokeWidth=2;" vertex="1" parent="1">
          <mxGeometry x="3910" y="1157" width="140" height="54" as="geometry" />
        </mxCell>
        <mxCell id="YUL_Qh2rPIl2TigICL6B-27" value="COPY_TEXT" style="whiteSpace=wrap;strokeWidth=2;" vertex="1" parent="1">
          <mxGeometry x="3908" y="1261" width="143" height="54" as="geometry" />
        </mxCell>
        <mxCell id="YUL_Qh2rPIl2TigICL6B-28" value="REMOTE_CONFIG" style="whiteSpace=wrap;strokeWidth=2;" vertex="1" parent="1">
          <mxGeometry x="3889" y="1365" width="181" height="54" as="geometry" />
        </mxCell>
        <mxCell id="YUL_Qh2rPIl2TigICL6B-29" value="exports/&#xa;JSON CSV" style="whiteSpace=wrap;strokeWidth=2;" vertex="1" parent="1">
          <mxGeometry x="3878" y="360" width="204" height="54" as="geometry" />
        </mxCell>
        <mxCell id="YUL_Qh2rPIl2TigICL6B-30" value="Supabase Auth&#xa;JWT anon role&#xa;RLS enabled" style="whiteSpace=wrap;strokeWidth=2;" vertex="1" parent="1">
          <mxGeometry x="3850" y="484" width="260" height="78" as="geometry" />
        </mxCell>
        <mxCell id="YUL_Qh2rPIl2TigICL6B-31" value="/capture endpoint" style="whiteSpace=wrap;strokeWidth=2;" vertex="1" parent="1">
          <mxGeometry x="2226" y="1007" width="192" height="54" as="geometry" />
        </mxCell>
        <mxCell id="YUL_Qh2rPIl2TigICL6B-32" value="Dashboards Funnel" style="whiteSpace=wrap;strokeWidth=2;" vertex="1" parent="1">
          <mxGeometry x="2468" y="1007" width="194" height="54" as="geometry" />
        </mxCell>
        <mxCell id="YUL_Qh2rPIl2TigICL6B-33" value="Brevo or Mailchimp API" style="whiteSpace=wrap;strokeWidth=2;" vertex="1" parent="1">
          <mxGeometry x="3868" y="55" width="224" height="54" as="geometry" />
        </mxCell>
        <mxCell id="YUL_Qh2rPIl2TigICL6B-34" value="Audience List" style="whiteSpace=wrap;strokeWidth=2;" vertex="1" parent="1">
          <mxGeometry x="4210" y="55" width="156" height="54" as="geometry" />
        </mxCell>
        <mxCell id="YUL_Qh2rPIl2TigICL6B-35" value="Slack Incoming Webhook&#xa;#quiz-alerts" style="whiteSpace=wrap;strokeWidth=2;" vertex="1" parent="1">
          <mxGeometry x="2962" y="995" width="260" height="78" as="geometry" />
        </mxCell>
        <mxCell id="YUL_Qh2rPIl2TigICL6B-36" value="Uptime probe&#xa;/health monitor" style="whiteSpace=wrap;strokeWidth=2;" vertex="1" parent="1">
          <mxGeometry x="2962" y="1123" width="260" height="78" as="geometry" />
        </mxCell>
        <mxCell id="YUL_Qh2rPIl2TigICL6B-37" value="FE env&#xa;NEXT_PUBLIC_SUPABASE_URL&#xa;NEXT_PUBLIC_SUPABASE_ANON_KEY&#xa;NEXT_PUBLIC_POSTHOG_KEY" style="whiteSpace=wrap;strokeWidth=2;" vertex="1" parent="1">
          <mxGeometry x="788" y="1141" width="805" height="78" as="geometry" />
        </mxCell>
        <mxCell id="YUL_Qh2rPIl2TigICL6B-38" value="Edge env&#xa;SUPABASE_SERVICE_KEY&#xa;MAIL_API_KEY&#xa;SLACK_WEBHOOK_URL" style="whiteSpace=wrap;strokeWidth=2;" vertex="1" parent="1">
          <mxGeometry x="910" y="1301" width="559" height="78" as="geometry" />
        </mxCell>
        <mxCell id="YUL_Qh2rPIl2TigICL6B-39" value="HTTPS GET app" style="curved=1;startArrow=none;endArrow=block;exitX=1;exitY=0.49;entryX=0;entryY=0.49;rounded=0;" edge="1" parent="1" source="YUL_Qh2rPIl2TigICL6B-13" target="YUL_Qh2rPIl2TigICL6B-14">
          <mxGeometry relative="1" as="geometry">
            <Array as="points" />
          </mxGeometry>
        </mxCell>
        <mxCell id="YUL_Qh2rPIl2TigICL6B-40" value="" style="curved=1;startArrow=none;endArrow=block;exitX=1;exitY=0.49;entryX=0;entryY=0.5;rounded=0;" edge="1" parent="1" source="YUL_Qh2rPIl2TigICL6B-14" target="YUL_Qh2rPIl2TigICL6B-15">
          <mxGeometry relative="1" as="geometry">
            <Array as="points" />
          </mxGeometry>
        </mxCell>
        <mxCell id="YUL_Qh2rPIl2TigICL6B-41" value="" style="curved=1;startArrow=none;endArrow=block;exitX=1;exitY=0.5;entryX=0.24;entryY=-0.01;rounded=0;" edge="1" parent="1" source="YUL_Qh2rPIl2TigICL6B-15" target="YUL_Qh2rPIl2TigICL6B-16">
          <mxGeometry relative="1" as="geometry">
            <Array as="points">
              <mxPoint x="1667" y="859" />
            </Array>
          </mxGeometry>
        </mxCell>
        <mxCell id="YUL_Qh2rPIl2TigICL6B-42" value="XHR GET /quiz" style="curved=1;startArrow=none;endArrow=block;exitX=0.58;exitY=0.99;entryX=0;entryY=-0.01;rounded=0;" edge="1" parent="1" source="YUL_Qh2rPIl2TigICL6B-16" target="YUL_Qh2rPIl2TigICL6B-17">
          <mxGeometry relative="1" as="geometry">
            <Array as="points">
              <mxPoint x="1977" y="1256" />
              <mxPoint x="3322" y="1256" />
            </Array>
          </mxGeometry>
        </mxCell>
        <mxCell id="YUL_Qh2rPIl2TigICL6B-43" value="XHR POST /quiz" style="curved=1;startArrow=none;endArrow=block;exitX=1;exitY=0.08;entryX=0;entryY=0.5;rounded=0;" edge="1" parent="1" source="YUL_Qh2rPIl2TigICL6B-16" target="YUL_Qh2rPIl2TigICL6B-18">
          <mxGeometry relative="1" as="geometry">
            <Array as="points">
              <mxPoint x="1977" y="910" />
            </Array>
          </mxGeometry>
        </mxCell>
        <mxCell id="YUL_Qh2rPIl2TigICL6B-44" value="XHR POST /lead" style="curved=1;startArrow=none;endArrow=block;exitX=0.57;exitY=-0.01;entryX=0;entryY=0.5;rounded=0;" edge="1" parent="1" source="YUL_Qh2rPIl2TigICL6B-16" target="YUL_Qh2rPIl2TigICL6B-19">
          <mxGeometry relative="1" as="geometry">
            <Array as="points">
              <mxPoint x="1977" y="629" />
            </Array>
          </mxGeometry>
        </mxCell>
        <mxCell id="YUL_Qh2rPIl2TigICL6B-45" value="capture minimal events" style="curved=1;dashed=1;dashPattern=2 3;startArrow=none;endArrow=block;exitX=0.77;exitY=0.99;entryX=0;entryY=0.5;rounded=0;" edge="1" parent="1" source="YUL_Qh2rPIl2TigICL6B-16" target="YUL_Qh2rPIl2TigICL6B-31">
          <mxGeometry relative="1" as="geometry">
            <Array as="points">
              <mxPoint x="1977" y="1034" />
            </Array>
          </mxGeometry>
        </mxCell>
        <mxCell id="YUL_Qh2rPIl2TigICL6B-46" value="" style="curved=1;startArrow=none;endArrow=block;exitX=0.74;exitY=-0.01;entryX=0;entryY=0.5;rounded=0;" edge="1" parent="1" source="YUL_Qh2rPIl2TigICL6B-17" target="YUL_Qh2rPIl2TigICL6B-26">
          <mxGeometry relative="1" as="geometry">
            <Array as="points">
              <mxPoint x="3632" y="1184" />
            </Array>
          </mxGeometry>
        </mxCell>
        <mxCell id="YUL_Qh2rPIl2TigICL6B-47" value="" style="curved=1;startArrow=none;endArrow=block;exitX=1;exitY=0.24;entryX=0;entryY=0.5;rounded=0;" edge="1" parent="1" source="YUL_Qh2rPIl2TigICL6B-17" target="YUL_Qh2rPIl2TigICL6B-27">
          <mxGeometry relative="1" as="geometry">
            <Array as="points">
              <mxPoint x="3632" y="1288" />
            </Array>
          </mxGeometry>
        </mxCell>
        <mxCell id="YUL_Qh2rPIl2TigICL6B-48" value="" style="curved=1;startArrow=none;endArrow=block;exitX=0.94;exitY=0.99;entryX=0;entryY=0.5;rounded=0;" edge="1" parent="1" source="YUL_Qh2rPIl2TigICL6B-17" target="YUL_Qh2rPIl2TigICL6B-28">
          <mxGeometry relative="1" as="geometry">
            <Array as="points">
              <mxPoint x="3632" y="1392" />
            </Array>
          </mxGeometry>
        </mxCell>
        <mxCell id="YUL_Qh2rPIl2TigICL6B-49" value="" style="curved=1;startArrow=none;endArrow=block;exitX=0.76;exitY=0;entryX=0;entryY=0.49;rounded=0;" edge="1" parent="1" source="YUL_Qh2rPIl2TigICL6B-18" target="YUL_Qh2rPIl2TigICL6B-23">
          <mxGeometry relative="1" as="geometry">
            <Array as="points">
              <mxPoint x="3632" y="793" />
            </Array>
          </mxGeometry>
        </mxCell>
        <mxCell id="YUL_Qh2rPIl2TigICL6B-50" value="" style="curved=1;startArrow=none;endArrow=block;exitX=1;exitY=0.39;entryX=0;entryY=0.49;rounded=0;" edge="1" parent="1" source="YUL_Qh2rPIl2TigICL6B-18" target="YUL_Qh2rPIl2TigICL6B-24">
          <mxGeometry relative="1" as="geometry">
            <Array as="points">
              <mxPoint x="3632" y="897" />
            </Array>
          </mxGeometry>
        </mxCell>
        <mxCell id="YUL_Qh2rPIl2TigICL6B-51" value="" style="curved=1;startArrow=none;endArrow=block;exitX=0.59;exitY=1;entryX=0;entryY=0.49;rounded=0;" edge="1" parent="1" source="YUL_Qh2rPIl2TigICL6B-19" target="YUL_Qh2rPIl2TigICL6B-25">
          <mxGeometry relative="1" as="geometry">
            <Array as="points">
              <mxPoint x="3632" y="1001" />
            </Array>
          </mxGeometry>
        </mxCell>
        <mxCell id="YUL_Qh2rPIl2TigICL6B-52" value="JWT anon" style="curved=1;dashed=1;dashPattern=2 3;startArrow=none;endArrow=block;exitX=0.53;exitY=-0.01;entryX=0;entryY=0.2;rounded=0;" edge="1" parent="1" source="YUL_Qh2rPIl2TigICL6B-16" target="YUL_Qh2rPIl2TigICL6B-30">
          <mxGeometry relative="1" as="geometry">
            <Array as="points">
              <mxPoint x="1977" y="243" />
              <mxPoint x="3632" y="243" />
              <mxPoint x="3716" y="496" />
              <mxPoint x="3825" y="496" />
            </Array>
          </mxGeometry>
        </mxCell>
        <mxCell id="YUL_Qh2rPIl2TigICL6B-53" value="service role key" style="curved=1;dashed=1;dashPattern=2 3;startArrow=none;endArrow=block;exitX=0.59;exitY=0;entryX=0.09;entryY=0.99;rounded=0;" edge="1" parent="1" source="YUL_Qh2rPIl2TigICL6B-18" target="YUL_Qh2rPIl2TigICL6B-30">
          <mxGeometry relative="1" as="geometry">
            <Array as="points">
              <mxPoint x="3632" y="580" />
              <mxPoint x="3825" y="580" />
            </Array>
          </mxGeometry>
        </mxCell>
        <mxCell id="YUL_Qh2rPIl2TigICL6B-54" value="" style="curved=1;startArrow=none;endArrow=block;exitX=0.64;exitY=1;entryX=0;entryY=0.49;rounded=0;" edge="1" parent="1" source="YUL_Qh2rPIl2TigICL6B-21" target="YUL_Qh2rPIl2TigICL6B-29">
          <mxGeometry relative="1" as="geometry">
            <Array as="points">
              <mxPoint x="3632" y="496" />
              <mxPoint x="3716" y="387" />
            </Array>
          </mxGeometry>
        </mxCell>
        <mxCell id="YUL_Qh2rPIl2TigICL6B-55" value="add contact" style="curved=1;startArrow=none;endArrow=block;exitX=0.64;exitY=0;entryX=0.41;entryY=1;rounded=0;" edge="1" parent="1" source="YUL_Qh2rPIl2TigICL6B-19" target="YUL_Qh2rPIl2TigICL6B-33">
          <mxGeometry relative="1" as="geometry">
            <Array as="points">
              <mxPoint x="3632" y="414" />
              <mxPoint x="3716" y="305" />
              <mxPoint x="3825" y="305" />
            </Array>
          </mxGeometry>
        </mxCell>
        <mxCell id="YUL_Qh2rPIl2TigICL6B-56" value="" style="curved=1;startArrow=none;endArrow=block;exitX=1;exitY=0.5;entryX=0;entryY=0.5;rounded=0;" edge="1" parent="1" source="YUL_Qh2rPIl2TigICL6B-33" target="YUL_Qh2rPIl2TigICL6B-34">
          <mxGeometry relative="1" as="geometry">
            <Array as="points" />
          </mxGeometry>
        </mxCell>
        <mxCell id="YUL_Qh2rPIl2TigICL6B-57" value="" style="curved=1;startArrow=none;endArrow=block;exitX=1;exitY=0.5;entryX=0;entryY=0.5;rounded=0;" edge="1" parent="1" source="YUL_Qh2rPIl2TigICL6B-31" target="YUL_Qh2rPIl2TigICL6B-32">
          <mxGeometry relative="1" as="geometry">
            <Array as="points" />
          </mxGeometry>
        </mxCell>
        <mxCell id="YUL_Qh2rPIl2TigICL6B-58" value="completion drop or latency high" style="curved=1;startArrow=none;endArrow=block;exitX=1;exitY=0.5;entryX=0;entryY=0.5;rounded=0;" edge="1" parent="1" source="YUL_Qh2rPIl2TigICL6B-32" target="YUL_Qh2rPIl2TigICL6B-35">
          <mxGeometry relative="1" as="geometry">
            <Array as="points" />
          </mxGeometry>
        </mxCell>
        <mxCell id="YUL_Qh2rPIl2TigICL6B-59" value="" style="curved=1;startArrow=none;endArrow=block;exitX=1;exitY=0.5;entryX=0;entryY=0.5;rounded=0;" edge="1" parent="1" source="YUL_Qh2rPIl2TigICL6B-36" target="YUL_Qh2rPIl2TigICL6B-20">
          <mxGeometry relative="1" as="geometry">
            <Array as="points" />
          </mxGeometry>
        </mxCell>
        <mxCell id="YUL_Qh2rPIl2TigICL6B-60" value="" style="curved=1;dashed=1;dashPattern=2 3;startArrow=none;endArrow=block;exitX=1;exitY=0.49;entryX=0.4;entryY=0.99;rounded=0;" edge="1" parent="1" source="YUL_Qh2rPIl2TigICL6B-37" target="YUL_Qh2rPIl2TigICL6B-16">
          <mxGeometry relative="1" as="geometry">
            <Array as="points">
              <mxPoint x="1667" y="1180" />
            </Array>
          </mxGeometry>
        </mxCell>
        <mxCell id="YUL_Qh2rPIl2TigICL6B-61" value="" style="curved=1;dashed=1;dashPattern=2 3;startArrow=none;endArrow=block;rounded=0;" edge="1" parent="1" source="YUL_Qh2rPIl2TigICL6B-38" target="YUL_Qh2rPIl2TigICL6B-8">
          <mxGeometry relative="1" as="geometry">
            <Array as="points" />
          </mxGeometry>
        </mxCell>
      </root>
    </mxGraphModel>
  </diagram>
</mxfile>
